<svg xmlns="http://www.w3.org/2000/svg" viewBox="0 0 509.69 337.07"><defs><style>.cls-1{fill:#f87e11;}.cls-2{isolation:isolate;}</style></defs><path d="M318,118.93c0,.55,0,1.1,0,1.66,0,33.4-27.54,60.48-61.51,60.48s-61.5-27.08-61.5-60.48c0-.56,0-1.11,0-1.66H179.72c0,.55,0,1.1,0,1.66,0,41.75,34.42,75.6,76.88,75.6s76.88-33.85,76.88-75.6c0-.56,0-1.11,0-1.66Z"></path><path class="cls-1" d="M195.06,120.93c0-.11,0-.22,0-.33,0-33.4,27.54-60.48,61.5-60.48s61.51,27.08,61.51,60.48c0,.11,0,.22,0,.33h15.38c0-.11,0-.22,0-.33C333.44,78.85,299,45,256.56,45s-76.88,33.85-76.88,75.6c0,.11,0,.22,0,.33Z"></path><polygon points="141.31 20.57 122.76 1.57 0 1.57 0 244.57 122.76 244.57 141.31 226.57 18 226.57 18 133.57 491 133.57 491 226.57 371.81 226.57 391.44 244.57 507 244.57 507 115.57 389 115.57 389 20.57 493.44 20.57 509.69 1.57 369 1.57 369 115.57 18 115.57 18 20.57 141.31 20.57"/><path class="cls-1" d="M202.29,38.79c12-15.38,36.52-24.55,54.27-24.55s42.16,9.12,54.2,24.45l11.72-10.35C309,11.57,284.54,0,256.56,0c-27.79,0-52.13,11.42-65.64,28Z"></path><g class="cls-2"><path d="M54.37,333a.61.61,0,0,1-.69.69H48a.61.61,0,0,1-.69-.69V286.07a.61.61,0,0,1,.69-.69h5.73a.61.61,0,0,1,.69.69Z"></path><path d="M100.19,333a.61.61,0,0,1-.69.69H93.84a.61.61,0,0,1-.69-.69V292.28H83V333q0,.69-.76.69H76.59a.61.61,0,0,1-.69-.69V286.07a.61.61,0,0,1,.69-.69h5.66q.76,0,.76.69v1.66A6.62,6.62,0,0,1,85.42,286a7.63,7.63,0,0,1,3-.62H92.6a7.54,7.54,0,0,1,7.59,7.59Z"></path><path d="M141.24,291.52c0,.51-.23.76-.69.76h-7.11V333a.61.61,0,0,1-.69.69H127.1a.61.61,0,0,1-.69-.69V292.28H119.3c-.46,0-.69-.25-.69-.76v-5.45a.61.61,0,0,1,.69-.69h21.25a.61.61,0,0,1,.69.69Z"></path><path d="M177.4,333q0,.69-.76.69H166.56a7.54,7.54,0,0,1-7.59-7.59V293a7.54,7.54,0,0,1,7.59-7.59h10.07q.76,0,.76.69v5.45a.67.67,0,0,1-.76.76H166.08v13.8h10.56q.76,0,.76.69v5.45q0,.69-.76.69H166.08v13.94h10.56q.76,0,.76.69Z"></path><path d="M222.25,333.2c0,.32-.23.48-.69.48h-6.35a.61.61,0,0,1-.69-.69V316.71a3.51,3.51,0,0,0-1.1-2.93,4.35,4.35,0,0,0-2.76-.86h-5.38V333a.61.61,0,0,1-.69.69h-5.73a.61.61,0,0,1-.69-.69V286.07a.61.61,0,0,1,.69-.69H214a7.54,7.54,0,0,1,7.59,7.59v10.35a7.7,7.7,0,0,1-.83,3.55,7.28,7.28,0,0,1-2.28,2.66,6.74,6.74,0,0,1,2.28,2.59,7.71,7.71,0,0,1,.83,3.55v15.25a2.26,2.26,0,0,0,.35,1.52A1.06,1.06,0,0,1,222.25,333.2Zm-7.73-40.92h-9.25v13.8h9.25Z"></path><path d="M266.41,333a.61.61,0,0,1-.69.69H260a.61.61,0,0,1-.69-.69V312.91h-9.18V333q0,.69-.76.69h-5.66A.61.61,0,0,1,243,333V293a7.54,7.54,0,0,1,7.59-7.59h8.21a7.54,7.54,0,0,1,7.59,7.59Zm-7.11-40.71h-9.18v13.8h9.18Z"></path><path d="M310.64,326.09a7.54,7.54,0,0,1-7.59,7.59h-8.21a7.54,7.54,0,0,1-7.59-7.59V293a7.54,7.54,0,0,1,7.59-7.59H303a7.54,7.54,0,0,1,7.59,7.59v5.31q0,.76-.69.76h-5.66q-.69,0-.69-.76v-6h-9.25v34.57h9.25v-5.73a.61.61,0,0,1,.69-.69h5.66a.61.61,0,0,1,.69.69Z"></path><path d="M350.66,291.52c0,.51-.23.76-.69.76h-7.11V333a.61.61,0,0,1-.69.69h-5.66a.61.61,0,0,1-.69-.69V292.28h-7.11c-.46,0-.69-.25-.69-.76v-5.45a.61.61,0,0,1,.69-.69H350a.61.61,0,0,1,.69.69Z"></path><path d="M376.19,333a.61.61,0,0,1-.69.69h-5.73a.61.61,0,0,1-.69-.69V286.07a.61.61,0,0,1,.69-.69h5.73a.61.61,0,0,1,.69.69Z"></path><path d="M410.62,333a.77.77,0,0,1-.83.69h-5.66a.77.77,0,0,1-.83-.69l-8-46.92q-.14-.69.55-.69h5.66a.81.81,0,0,1,.9.69l4.55,26.7,4.55-26.7a.73.73,0,0,1,.76-.69H418q.69,0,.55.69Z"></path><path d="M455.4,333q0,.69-.76.69H444.56a7.54,7.54,0,0,1-7.59-7.59V293a7.54,7.54,0,0,1,7.59-7.59h10.07q.76,0,.76.69v5.45a.67.67,0,0,1-.76.76H444.08v13.8h10.56q.76,0,.76.69v5.45q0,.69-.76.69H444.08v13.94h10.56q.76,0,.76.69Z"></path></g></svg>
