<svg xmlns="http://www.w3.org/2000/svg" x="0px" y="0px" viewBox="0 0 100 125"><g transform="translate(0,-952.36218)"><path d="M 12 20 C 8.1738931 20 5 23.17389 5 27 L 5 73 C 5 76.8261 8.1738931 80 12 80 L 88 80 C 91.826107 80 95 76.8261 95 73 L 95 27 C 95 23.17389 91.826107 20 88 20 L 12 20 z M 14.71875 26 L 85.28125 26 L 50 55.125 L 14.71875 26 z M 11 30.71875 L 48.09375 61.3125 A 3.0003 3.0003 0 0 0 51.90625 61.3125 L 89 30.71875 L 89 73 C 89 73.6059 88.60589 74 88 74 L 12 74 C 11.39411 74 11 73.6059 11 73 L 11 30.71875 z " transform="translate(0,952.36218)"/></g></svg>
