<svg xmlns="http://www.w3.org/2000/svg" x="0px" y="0px" viewBox="-949 951 100 125" xml:space="preserve"><switch><g><path d="M-854.6,965.6h-73.5c-1.7,0-3.1,1.4-3.1,3.1v62c0,2.1-0.7,4-1.9,5.6h78.6c1.7,0,3.1-1.4,3.1-3.1v-64.5     C-851.5,967-852.9,965.6-854.6,965.6z M-920.2,978.6c0-1.4,1.2-2.6,2.6-2.6h19.3c1.4,0,2.6,1.2,2.6,2.6v14.9c0,1.4-1.2,2.6-2.6,2.6h-19.3c-1.4,0-2.6-1.2-2.6-2.6V978.6z M-865.3,1026h-52.3c-1.4,0-2.6-1.2-2.6-2.6s1.2-2.6,2.6-2.6h52.3c1.4,0,2.6,1.2,2.6,2.6S-863.9,1026-865.3,1026z M-865.3,1011h-52.3c-1.4,0-2.6-1.2-2.6-2.6s1.2-2.6,2.6-2.6h52.3c1.4,0,2.6,1.2,2.6,2.6S-863.9,1011-865.3,1011z M-865.3,996.1H-885c-1.4,0-2.6-1.2-2.6-2.6s1.2-2.6,2.6-2.6h19.7c1.4,0,2.6,1.2,2.6,2.6S-863.9,996.1-865.3,996.1z M-865.3,981.2H-885c-1.4,0-2.6-1.2-2.6-2.6s1.2-2.6,2.6-2.6h19.7c1.4,0,2.6,1.2,2.6,2.6S-863.9,981.2-865.3,981.2z"/><path d="M-946.5,985.2v45.6c0,3.1,2.5,5.6,5.6,5.6h0.6c3.1,0,5.6-2.5,5.6-5.6V982h-8.6C-945.1,982-946.5,983.4-946.5,985.2z"/><path d="M-941.2,1036.4h0.3C-941,1036.4-941.1,1036.4-941.2,1036.4L-941.2,1036.4z"/></g></switch></svg>
